HIERARCHY
ROOT Hips
{
	OFFSET 0.000000 0.000000 0.000000 
	CHANNELS 6 Xposition Yposition Zposition Zrotation Yrotation Xrotation
	JOINT LeftUpLeg
	{
		OFFSET 1.363060 -1.794630 0.839290 
		CHANNELS 3 Zrotation Yrotation Xrotation
		JOINT LeftLeg
		{
			OFFSET 2.448110 -6.726130 0.000000 
			CHANNELS 3 Zrotation Yrotation Xrotation
			JOINT LeftFoot
			{
				OFFSET 2.562200 -7.039590 0.000000 
				CHANNELS 3 Zrotation Yrotation Xrotation
				JOINT LeftToeBase
				{
					OFFSET 0.157640 -0.433110 2.322550 
					CHANNELS 3 Zrotation Yrotation Xrotation
					End Site
					{
						OFFSET 0.000000 0.000000 0.000000 
					}
				}
			}
		}
	}
	JOINT RightUpLeg
	{
		OFFSET -1.305520 -1.794630 0.839290 
		CHANNELS 3 Zrotation Yrotation Xrotation
		JOINT RightLeg
		{
			OFFSET -2.542530 -6.985550 0.000000 
			CHANNELS 3 Zrotation Yrotation Xrotation
			JOINT RightFoot
			{
				OFFSET -2.568260 -7.056230 0.000000 
				CHANNELS 3 Zrotation Yrotation Xrotation
				JOINT RightToeBase
				{
					OFFSET -0.164730 -0.452590 2.363150 
					CHANNELS 3 Zrotation Yrotation Xrotation
					End Site
					{
						OFFSET 0.000000 0.000000 0.000000 
					}
				}
			}
		}
	}
	JOINT Spine
	{
		OFFSET 0.028270 2.035590 -0.193380 
		CHANNELS 3 Zrotation Yrotation Xrotation
		JOINT Spine1
		{
			OFFSET 0.056720 2.048850 -0.042750 
			CHANNELS 3 Zrotation Yrotation Xrotation
			JOINT Neck1
			{
				OFFSET -0.054170 1.746240 0.172020 
				CHANNELS 3 Zrotation Yrotation Xrotation
				JOINT Head
				{
					OFFSET 0.104070 1.761360 -0.123970 
					CHANNELS 3 Zrotation Yrotation Xrotation
					End Site
					{
						OFFSET 0.000000 0.000000 0.000000 
					}
				}
			}
			JOINT LeftArm
			{
				OFFSET 3.362410 1.200890 -0.311210 
				CHANNELS 3 Zrotation Yrotation Xrotation
				JOINT LeftForeArm
				{
					OFFSET 4.983000 -0.000000 -0.000000 
					CHANNELS 3 Zrotation Yrotation Xrotation
					JOINT LeftHand
					{
						OFFSET 3.483560 -0.000000 -0.000000 
						CHANNELS 3 Zrotation Yrotation Xrotation
						JOINT LeftHandIndex1
						{
							OFFSET 0.715260 -0.000000 -0.000000 
							CHANNELS 3 Zrotation Yrotation Xrotation
							End Site
							{
								OFFSET 0.000000 0.000000 0.000000 
							}
						}
					}
				}
			}
			JOINT RightArm
			{
				OFFSET -3.136600 1.374050 -0.404650 
				CHANNELS 3 Zrotation Yrotation Xrotation
				JOINT RightForeArm
				{
					OFFSET -5.241900 -0.000000 -0.000000 
					CHANNELS 3 Zrotation Yrotation Xrotation
					JOINT RightHand
					{
						OFFSET -3.444170 -0.000000 -0.000000 
						CHANNELS 3 Zrotation Yrotation Xrotation
						JOINT RightHandIndex1
						{
							OFFSET -0.622530 -0.000000 -0.000000 
							CHANNELS 3 Zrotation Yrotation Xrotation
							End Site
							{
								OFFSET 0.000000 0.000000 0.000000 
							}
						}
					}
				}
			}
		}
	}
}
MOTION
Frames: 12
Frame Time: 0.041667
16.990440 20.858850 -11.992896 -62.065047 86.334834 -62.157739 -11.703857 -1.055393 -15.980900 1.477805 9.919300 26.858993 0.340356 -15.049150 4.504765 1.593800 7.963000 22.601800 21.773368 -12.702617 -18.352905 -3.366051 -12.951153 36.216998 0.839020 -9.674784 -16.488818 -0.663400 -5.209100 14.506000 2.255523 0.137169 -2.715077 5.825732 0.092883 -0.693095 4.153373 -2.842443 21.759929 3.098600 -1.738800 14.397200 -85.716499 -4.503506 27.779676 22.980643 -35.156682 -7.219106 0.097681 0.675098 -10.611754 -7.125000 0.000000 0.000000 82.005458 -3.458656 15.566401 -19.812187 29.553120 -5.736928 0.292241 -0.038703 -14.719066 7.125000 0.000000 0.000000 
17.025719 20.846754 -11.999750 -60.106799 85.641166 -60.258545 -11.105534 -0.889655 -15.880971 1.522303 9.997966 27.094981 0.360262 -14.987487 4.134696 1.505300 7.749000 21.954400 22.571974 -13.533415 -18.331841 -3.271428 -12.836145 35.776382 0.932467 -10.085227 -16.269309 -0.679600 -5.270900 14.682900 2.260772 0.375182 -2.689227 5.396784 0.219625 -0.633954 4.189436 -2.904771 21.840443 3.119700 -1.756500 14.470100 -85.764947 -4.736163 27.761294 22.950958 -35.113161 -7.200241 0.097119 0.675745 -10.704888 -7.125000 0.000000 0.000000 82.016315 -3.416621 15.601702 -19.836107 29.591864 -5.752468 0.296802 -0.039175 -14.537807 7.125000 0.000000 0.000000 
17.058982 20.834960 -11.994206 -57.276413 85.293136 -57.400938 -10.837663 -0.815235 -15.861020 1.561596 10.072923 27.317387 0.373538 -14.924654 3.807562 1.440500 7.587900 21.469200 23.023713 -14.043317 -18.265395 -3.189352 -12.728105 35.385420 0.985960 -10.313940 -16.125030 -0.774900 -5.620700 15.687700 2.230966 0.602572 -2.699177 5.165247 0.339345 -0.622943 4.239087 -3.081150 21.908626 3.150000 -1.829000 14.513500 -85.958814 -4.945744 27.543098 22.798054 -34.948702 -7.119512 0.099265 0.678346 -10.127162 -7.125000 0.000000 0.000000 82.132699 -3.485132 15.352328 -19.893578 29.672370 -5.787258 0.289492 -0.043098 -14.289306 7.125000 0.000000 0.000000 
17.090230 20.831533 -11.978583 -51.675031 85.626366 -51.792974 -11.328308 -0.885493 -15.831771 1.587095 10.150103 27.510524 0.379444 -14.875335 3.235270 1.295200 7.210500 20.340400 22.717471 -14.244612 -18.021138 -3.109749 -12.615743 35.010545 1.026894 -10.602236 -16.381138 -1.000300 -6.364500 17.845800 2.137348 0.712249 -2.732265 5.250918 0.394444 -0.690422 4.339869 -3.249137 21.942734 3.209700 -1.897300 14.528400 -86.153007 -5.012858 27.369610 22.679003 -34.825394 -7.057220 0.100179 0.679982 -9.710373 -7.125000 0.000000 0.000000 82.253826 -3.540772 15.089219 -19.912302 29.699189 -5.799741 0.275572 -0.048239 -14.195002 7.125000 0.000000 0.000000 
17.124198 20.830828 -11.967193 -46.935800 85.718890 -47.082172 -11.595315 -0.951286 -15.677146 1.598234 10.200136 27.617305 0.396627 -14.699773 2.634418 1.197700 6.943900 19.549100 22.609482 -14.571076 -17.732121 -3.028169 -12.504349 34.626908 1.009721 -10.615417 -16.673933 -1.110200 -6.694100 18.812200 2.097162 0.714261 -2.737791 5.334998 0.393902 -0.673507 4.377673 -3.248022 22.011671 3.238100 -1.897000 14.583900 -86.251158 -5.045741 27.193359 22.639427 -34.787585 -7.038906 0.103234 0.680297 -9.925059 -7.125000 0.000000 0.000000 82.194803 -3.423549 15.227211 -19.820754 29.592895 -5.752421 0.270548 -0.053663 -14.019492 7.125000 0.000000 0.000000 
17.157260 20.833146 -11.960943 -46.430162 85.158626 -46.509026 -11.137760 -0.883708 -15.582960 1.610132 10.222787 27.683376 0.428382 -14.394076 2.173069 1.155500 6.824700 19.197000 23.180795 -15.120524 -17.698876 -2.938522 -12.382275 34.189732 0.926390 -10.197719 -16.659973 -1.097400 -6.656700 18.702200 2.139588 0.752913 -2.752229 5.203417 0.417270 -0.639478 4.303186 -3.136376 22.056043 3.210300 -1.860200 14.592200 -86.320132 -5.014900 27.044653 22.584444 -34.729868 -7.011385 0.108610 0.679120 -10.173136 -7.125000 0.000000 0.000000 82.067772 -3.379545 15.553103 -19.750949 29.521119 -5.718544 0.268929 -0.061348 -13.845930 7.125000 0.000000 0.000000 
17.186290 20.832844 -11.956004 -45.260601 84.569357 -45.221416 -10.716910 -0.722358 -15.639091 1.636695 10.266891 27.827459 0.454048 -14.090160 1.843813 1.201900 6.955700 19.584200 23.650257 -15.434314 -17.668839 -2.830962 -12.227912 33.655437 0.864359 -9.849637 -16.554663 -1.102600 -6.671900 18.746800 2.122001 0.868161 -2.786398 4.843879 0.482773 -0.657316 4.229788 -3.107003 22.073930 3.150200 -1.836400 14.562600 -86.264138 -4.844824 27.062718 22.594158 -34.730996 -7.012035 0.107021 0.675585 -10.258383 -7.125000 0.000000 0.000000 82.304930 -3.481629 15.601052 -19.760228 29.542182 -5.725464 0.265010 -0.062491 -13.558855 7.125000 0.000000 0.000000 
17.212900 20.822663 -11.948646 -40.786773 84.329072 -40.737926 -10.826925 -0.643409 -15.626948 1.666100 10.339561 28.026237 0.474987 -13.819524 1.300949 1.143500 6.790500 19.096300 23.521687 -15.264801 -17.273637 -2.716094 -12.065322 33.098675 0.872416 -9.926284 -16.656885 -1.097300 -6.656400 18.701200 2.035629 0.996186 -2.803490 4.600735 0.549049 -0.678725 4.224940 -3.136266 22.150870 3.117800 -1.824800 14.601000 -86.276112 -4.725071 26.860587 22.575557 -34.702175 -6.997899 0.102016 0.671951 -10.028448 -7.125000 0.000000 0.000000 82.606080 -3.556139 15.707173 -19.808736 29.597018 -5.748173 0.269794 -0.055718 -13.102553 7.125000 0.000000 0.000000 
17.239914 20.812483 -11.936550 -35.355485 84.099305 -35.328149 -11.068910 -0.578135 -15.556569 1.688617 10.407682 28.196922 0.507395 -13.507556 0.431853 0.911900 6.085000 17.031300 23.248110 -15.001847 -16.761774 -2.620256 -11.930871 32.633325 0.893041 -10.063203 -16.750130 -0.936900 -6.165400 17.265000 2.023108 1.143295 -2.810818 4.790167 0.619826 -0.691836 4.221521 -3.046945 22.206076 3.145900 -1.804300 14.626800 -86.658556 -4.701568 26.482120 22.451290 -34.578206 -6.933643 0.098693 0.674965 -9.810300 -7.125000 0.000000 0.000000 82.457938 -3.614323 16.007352 -19.867492 29.664949 -5.777810 0.275883 -0.058598 -12.921691 7.125000 0.000000 0.000000 
17.267936 20.809560 -11.920322 -30.296556 83.742849 -30.173776 -11.242888 -0.430836 -15.618430 1.714018 10.471339 28.373058 0.535024 -13.184937 -0.241046 0.911200 6.082700 17.024500 22.981601 -15.147358 -16.541294 -2.549288 -11.809329 32.235562 0.742216 -9.210463 -16.531811 -0.869600 -5.945800 16.627400 2.039238 1.344795 -2.820750 5.097991 0.716070 -0.643034 4.272281 -2.915089 22.229562 3.245300 -1.788100 14.638200 -87.076029 -4.632395 26.416101 22.366644 -34.505221 -6.892595 0.099548 0.681524 -10.025557 -7.125000 0.000000 0.000000 82.179671 -3.626232 16.278165 -19.861965 29.662456 -5.775837 0.277794 -0.062748 -13.281222 7.125000 0.000000 0.000000 
17.295655 20.806334 -11.904093 -26.686670 83.319700 -26.528605 -11.319294 -0.351178 -15.575421 1.737943 10.530644 28.538666 0.553366 -12.843663 -0.677517 0.987500 6.324900 17.730000 22.780108 -15.968697 -16.536078 -2.491061 -11.684932 31.836800 0.499257 -7.701434 -15.875858 -0.875800 -5.966400 16.687000 1.995774 1.534871 -2.820412 5.097111 0.807073 -0.593208 4.396724 -2.949576 22.285610 3.333400 -1.802000 14.695100 -87.180121 -4.503945 26.447702 22.297530 -34.436535 -6.857900 0.105362 0.682142 -10.086560 -7.125000 0.000000 0.000000 82.098101 -3.510173 16.475550 -19.754129 29.538255 -5.719449 0.276354 -0.059187 -13.844032 7.125000 0.000000 0.000000 
17.324181 20.799278 -11.891292 -25.799235 82.697534 -25.681717 -11.076536 -0.373495 -15.333562 1.746313 10.562204 28.616404 0.579457 -12.351469 -1.183109 0.888100 6.007200 16.805300 22.930689 -16.499681 -16.264003 -2.405403 -11.541595 31.340241 0.382719 -6.905613 -15.381867 -0.718800 -5.417600 15.103700 1.959980 1.695041 -2.818566 4.863970 0.887959 -0.596811 4.451086 -3.077209 22.283718 3.345000 -1.841500 14.692600 -87.230612 -4.320073 26.237066 22.209776 -34.338063 -6.811733 0.108407 0.680667 -9.751792 -7.125000 0.000000 0.000000 82.330138 -3.623691 15.979402 -19.968913 29.799173 -5.836079 0.259787 -0.054227 -13.253061 7.125000 0.000000 0.000000 
